<?xml version="1.0" encoding="iso-8859-1"?>
<!-- Generator: Adobe Illustrator 19.0.0, SVG Export Plug-In . SVG Version: 6.00 Build 0)  -->
<svg version="1.1" id="Capa_1" xmlns="http://www.w3.org/2000/svg" xmlns:xlink="http://www.w3.org/1999/xlink" x="0px" y="0px"
	 viewBox="0 0 512 512" style="enable-background:new 0 0 512 512;" xml:space="preserve">
<g>
	<g>
		<path d="M512,153.6V59.733C511.963,26.759,485.241,0.037,452.267,0H59.733C26.759,0.037,0.037,26.759,0,59.733V153.6
			c0.013,2.262,0.912,4.428,2.503,6.036L30.6,187.733L2.503,215.831c-3.319,3.34-3.319,8.732,0,12.072L30.6,256L2.503,284.097
			c-3.319,3.34-3.319,8.732,0,12.072L30.6,324.267L2.503,352.364C0.912,353.972,0.013,356.138,0,358.4v93.867
			C0.037,485.241,26.759,511.963,59.733,512h392.533c32.974-0.037,59.696-26.759,59.733-59.733V358.4
			c-0.013-2.262-0.912-4.428-2.503-6.036L481.4,324.267l28.097-28.097c3.319-3.34,3.319-8.732,0-12.072L481.4,256l28.097-28.097
			c3.319-3.34,3.319-8.732,0-12.072L481.4,187.733l28.097-28.097C511.088,158.028,511.987,155.862,512,153.6z M51.2,494.071
			c-19.85-4.08-34.106-21.539-34.133-41.804v-85.333h17.067V435.2c0.009,9.422,7.645,17.057,17.067,17.067V494.071z M51.2,435.2
			v-68.267h17.067l0.012,68.267H51.2z M119.467,494.933h-51.2v-42.667c9.422-0.009,17.057-7.645,17.067-17.067v-68.267H102.4V435.2
			c0.009,9.422,7.645,17.057,17.067,17.067V494.933z M187.733,494.933h-51.2v-42.667c9.422-0.009,17.057-7.645,17.067-17.067
			v-68.267h17.067V435.2c0.009,9.422,7.645,17.057,17.067,17.067V494.933z M119.467,435.2v-68.267h17.067l0.013,68.267H119.467z
			 M247.467,494.933H204.8v-42.667c9.422-0.009,17.057-7.645,17.067-17.067v-68.267h25.6V494.933z M187.733,435.2v-68.267H204.8
			l0.013,68.267H187.733z M307.2,494.933h-42.667v-128h25.6V435.2c0.009,9.422,7.645,17.057,17.067,17.067V494.933z
			 M375.467,494.933h-51.2v-42.667c9.422-0.009,17.057-7.645,17.067-17.067v-68.267H358.4V435.2
			c0.009,9.422,7.645,17.057,17.067,17.067V494.933z M307.2,435.2v-68.267h17.067l0.013,68.267H307.2z M443.733,494.933h-51.2
			v-42.667c9.422-0.009,17.057-7.645,17.067-17.067v-68.267h17.067V435.2c0.009,9.422,7.645,17.057,17.067,17.067V494.933z
			 M375.467,435.2v-68.267h17.067l0.013,68.267H375.467z M443.733,435.2v-68.267H460.8l0.012,68.267H443.733z M494.933,452.267
			c-0.028,20.265-14.283,37.724-34.133,41.804v-41.804c9.422-0.009,17.057-7.645,17.067-17.067v-68.267h17.067V452.267z
			 M482.867,349.867H29.133L46.2,332.8h419.6L482.867,349.867z M465.8,315.733H46.2l-17.067-17.067h453.733L465.8,315.733z
			 M482.867,281.6H29.133L46.2,264.533h419.6L482.867,281.6z M465.8,247.467H46.2L29.133,230.4h453.733L465.8,247.467z
			 M482.867,213.333H29.133L46.2,196.267h419.6L482.867,213.333z M465.8,179.2H46.2l-17.067-17.067h453.733L465.8,179.2z
			 M494.933,145.067H17.067V59.733c0.028-23.553,19.114-42.639,42.667-42.667h392.533c23.553,0.028,42.639,19.114,42.667,42.667
			V145.067z"/>
	</g>
</g>
<g>
	<g>
		<path d="M89.6,34.133c-16.495,0-29.867,13.372-29.867,29.867c0,16.495,13.372,29.867,29.867,29.867
			c16.495,0,29.867-13.372,29.867-29.867C119.447,47.513,106.087,34.153,89.6,34.133z M89.6,76.8c-7.069,0-12.8-5.731-12.8-12.8
			c0-7.069,5.731-12.8,12.8-12.8c7.069,0,12.8,5.731,12.8,12.8C102.392,71.066,96.666,76.792,89.6,76.8z"/>
	</g>
</g>
<g>
	<g>
		<path d="M157.867,68.267C141.372,68.267,128,81.638,128,98.133C128,114.628,141.372,128,157.867,128
			c16.495,0,29.867-13.372,29.867-29.867C187.713,81.647,174.353,68.287,157.867,68.267z M157.867,110.933
			c-7.069,0-12.8-5.731-12.8-12.8c0-7.069,5.731-12.8,12.8-12.8c7.069,0,12.8,5.731,12.8,12.8
			C170.659,105.199,164.933,110.926,157.867,110.933z"/>
	</g>
</g>
<g>
	<g>
		<path d="M226.133,34.133c-16.495,0-29.867,13.372-29.867,29.867c0,16.495,13.372,29.867,29.867,29.867
			C242.628,93.867,256,80.495,256,64C255.98,47.513,242.62,34.153,226.133,34.133z M226.133,76.8c-7.069,0-12.8-5.731-12.8-12.8
			c0-7.069,5.731-12.8,12.8-12.8c7.069,0,12.8,5.731,12.8,12.8C238.926,71.066,233.199,76.792,226.133,76.8z"/>
	</g>
</g>
<g>
	<g>
		<path d="M294.4,68.267c-16.495,0-29.867,13.372-29.867,29.867c0,16.495,13.372,29.867,29.867,29.867s29.867-13.372,29.867-29.867
			C324.247,81.647,310.887,68.287,294.4,68.267z M294.4,110.933c-7.069,0-12.8-5.731-12.8-12.8c0-7.069,5.731-12.8,12.8-12.8
			c7.069,0,12.8,5.731,12.8,12.8C307.192,105.199,301.466,110.926,294.4,110.933z"/>
	</g>
</g>
<g>
	<g>
		<path d="M362.667,34.133C346.172,34.133,332.8,47.505,332.8,64c0,16.495,13.372,29.867,29.867,29.867S392.533,80.495,392.533,64
			C392.513,47.513,379.153,34.153,362.667,34.133z M362.667,76.8c-7.069,0-12.8-5.731-12.8-12.8c0-7.069,5.731-12.8,12.8-12.8
			s12.8,5.731,12.8,12.8C375.459,71.066,369.733,76.792,362.667,76.8z"/>
	</g>
</g>
<g>
	<g>
		<path d="M430.933,68.267c-16.495,0-29.867,13.372-29.867,29.867c0,16.495,13.372,29.867,29.867,29.867S460.8,114.628,460.8,98.133
			C460.78,81.647,447.42,68.287,430.933,68.267z M430.933,110.933c-7.069,0-12.8-5.731-12.8-12.8c0-7.069,5.731-12.8,12.8-12.8
			c7.069,0,12.8,5.731,12.8,12.8C443.726,105.199,437.999,110.926,430.933,110.933z"/>
	</g>
</g>
<g>
</g>
<g>
</g>
<g>
</g>
<g>
</g>
<g>
</g>
<g>
</g>
<g>
</g>
<g>
</g>
<g>
</g>
<g>
</g>
<g>
</g>
<g>
</g>
<g>
</g>
<g>
</g>
<g>
</g>
</svg>
