<?xml version="1.0" encoding="iso-8859-1"?>
<!-- Generator: Adobe Illustrator 19.0.0, SVG Export Plug-In . SVG Version: 6.00 Build 0)  -->
<svg xmlns="http://www.w3.org/2000/svg" xmlns:xlink="http://www.w3.org/1999/xlink" version="1.1" id="Layer_1" x="0px" y="0px" viewBox="0 0 500.5 500.5" style="enable-background:new 0 0 500.5 500.5;" xml:space="preserve" width="512" height="512">
<g>
	<path d="M442.3,46.586C442.3,20.898,421.402,0,395.715,0h-290.93C79.098,0,58.2,20.898,58.2,46.586v39.505   c0,2.66,0.753,5.458,2.203,7.825l23.5,38.433l-23.5,38.432c-2.99,4.878-2.853,10.995,0,15.65l23.5,38.433l-23.5,38.432   c-1.43,2.336-2.203,5.13-2.203,7.825c0,10.6,0,193.271,0,203.55c0,14.243,12.256,25.83,27.32,25.83c4.636,0,321.727,0,329.46,0   c15.064,0,27.32-11.587,27.32-25.83c0-10.216,0-192.853,0-203.55c0-2.613-0.735-5.429-2.203-7.825l-23.5-38.432l23.5-38.433   c2.914-4.755,2.921-10.884,0-15.65l-23.5-38.432l23.5-38.433c1.364-2.228,2.203-5.007,2.203-7.825V46.586z M88.2,46.586   C88.2,37.44,95.64,30,104.785,30h290.93c9.145,0,16.585,7.44,16.585,16.586v24.505H88.2V46.586z M386.218,140.174l14.328,23.432   H99.954l14.328-23.432c2.937-4.804,2.937-10.847,0-15.65l-14.328-23.433h300.593l-14.328,23.433   C383.281,129.327,383.281,135.37,386.218,140.174z M241.77,362.381h16.96v43.799c-6.137,0-10.823,0-16.96,0V362.381z    M273.73,436.18c8.284,0,15-6.716,15-15v-58.799h11.57v58.799c0,8.284,6.716,15,15,15h8.47v34.32h-58.52v-34.32H273.73z    M330.3,406.18v-43.799h16.95v43.799C341.096,406.18,336.445,406.18,330.3,406.18z M88.2,332.38v-46.26H412.3v46.26   C402.883,332.38,104.076,332.38,88.2,332.38z M153.25,406.18v-43.799h16.95v43.799C164.061,406.18,159.381,406.18,153.25,406.18z    M386.218,232.688l14.328,23.432H99.954l14.328-23.432c2.937-4.804,2.937-10.847,0-15.65l-14.328-23.433h300.593l-14.328,23.433   C383.281,221.842,383.281,227.885,386.218,232.688z M88.2,362.381h35.05v58.799c0,8.284,6.716,15,15,15h8.48v34.32H88.2V362.381z    M176.73,470.5v-34.32h8.47c8.284,0,15-6.716,15-15v-58.799h11.57v58.799c0,8.284,6.716,15,15,15h8.48v34.32H176.73z M353.77,470.5   v-34.32h8.48c8.284,0,15-6.716,15-15v-58.799h35.05V470.5H353.77z"/>
	<path d="M131.924,35.546h-7.313c-8.284,0-15,6.716-15,15s6.716,15,15,15h7.313c8.284,0,15-6.716,15-15   S140.208,35.546,131.924,35.546z"/>
	<path d="M192.915,35.546h-7.313c-8.284,0-15,6.716-15,15s6.716,15,15,15h7.313c8.284,0,15-6.716,15-15   S201.199,35.546,192.915,35.546z"/>
	<path d="M253.906,35.546h-7.313c-8.284,0-15,6.716-15,15s6.716,15,15,15h7.313c8.284,0,15-6.716,15-15   S262.19,35.546,253.906,35.546z"/>
	<path d="M314.897,35.546h-7.313c-8.284,0-15,6.716-15,15s6.716,15,15,15h7.313c8.284,0,15-6.716,15-15   S323.182,35.546,314.897,35.546z"/>
	<path d="M375.889,35.546h-7.313c-8.284,0-15,6.716-15,15s6.716,15,15,15h7.313c8.284,0,15-6.716,15-15   S384.173,35.546,375.889,35.546z"/>
	<path d="M199.816,294.25h-16.553c-8.284,0-15,6.716-15,15s6.716,15,15,15h16.553c8.284,0,15-6.716,15-15   S208.101,294.25,199.816,294.25z"/>
	<path d="M136.883,294.25h-16.553c-8.284,0-15,6.716-15,15s6.716,15,15,15h16.553c8.284,0,15-6.716,15-15   S145.167,294.25,136.883,294.25z"/>
	<path d="M392.647,309.25c0-8.284-6.716-15-15-15h-58.503c-8.284,0-15,6.716-15,15s6.716,15,15,15h58.503   C385.932,324.25,392.647,317.534,392.647,309.25z"/>
	<path d="M334.635,117.349h-168.77c-8.284,0-15,6.716-15,15s6.716,15,15,15h168.77c8.284,0,15-6.716,15-15   S342.919,117.349,334.635,117.349z"/>
	<path d="M334.635,211.271h-168.77c-8.284,0-15,6.716-15,15s6.716,15,15,15h168.77c8.284,0,15-6.716,15-15   S342.919,211.271,334.635,211.271z"/>
</g>















</svg>
